# xmcd
#
# Track frame offsets: 
#        150
#        12250
#        26277
#        45325
#        62087
#        77720
#        92612
#        108330
#        124087
#        141707
#        155325
#
# Disc length: 2372 seconds
#
# Revision: 2
# Processed by: cddbd v1.5.1PL0 Copyright (c) Steve Scherf et al.
# Submitted via: ExactAudioCopy v0.95a5
#
DISCID=8409420b
DTITLE=Lee Roy Parnell - We All Get Lucky Sometimes
DYEAR=1995
DGENRE=Country
TTITLE0=A Little Bit Of You
TTITLE1=Knock Yourself Out
TTITLE2=Heart's Desire
TTITLE3=When A Woman Loves A Man
TTITLE4=If The House Is Rockin'
TTITLE5=We All Get Lucky Sometimes
TTITLE6=Saved By The Grace Of Your Love
TTITLE7=Givin' Water To A Drowning Man
TTITLE8=I Had To Let It Go
TTITLE9=Squeeze Me In
TTITLE10=Lee Roy Parnell - Cat Walk
EXTD=
EXTT0=
EXTT1=
EXTT2=
EXTT3=
EXTT4=
EXTT5=
EXTT6=
EXTT7=
EXTT8=
EXTT9=
EXTT10=
PLAYORDER=
